{"title":"Wild.Mussels.2000.PROPER.LiMiTED.DVDRip.XviD-EXViD","uid":6720101,"size":734341311,"categoryP":"video","categoryS":"movies","magnet":"?xt=urn:btih:60f903132b90bf4290fad5cee8e714cbe3ea5326&amp;dn=Wild.Mussels.2000.PROPER.LiMiTED.DVDRip.XviD-EXViD&amp;tr=udp%3A%2F%2Ftracker.openbittorrent.com%3A80&amp;tr=udp%3A%2F%2Fopen.demonii.com%3A1337&amp;tr=udp%3A%2F%2Ftracker.coppersurfer.tk%3A6969&amp;tr=udp%3A%2F%2Fexodus.desync.com%3A6969","seeders":0,"leechers":1,"uploader":"TvTeam","files":4,"time":1317757211,"description":". \n  &lt;a href=&quot;\nhttp://www.torrenting.com/&quot; rel=&quot;nofollow&quot; target=&quot;_NEW&quot;&gt;\nhttp://www.torrenting.com/&lt;/a&gt;        :     Greatest Movie Tracker on The Net!!!\n &lt;a href=&quot;\nhttp://www.Torrenting.com&quot; rel=&quot;nofollow&quot; target=&quot;_NEW&quot;&gt;\nhttp://www.Torrenting.com&lt;/a&gt;          :     Once &amp; For all ;)\n\n\n               www . Torrenting . Com \n\n(((((((((((((= Enjoy No RAR releases =))))))))))))))))))))\n\n\n...................................NFO:....................................\n\n.                                                                                                     \n       \n     \n     \n       \n       \n     \n     \n                                         \n                                         \n                EXVID                    \n                                         \n         \n                                         \n         Filled the Archives             \n                                         \n         \n                                         \n                With:                    \n                                         \n         \n                                         \n                                    \n     E240                           \n                                    \n     SP               (C) 2009      \n                                         \n     \n     \n     \n                                                                                  \n                                                                                   \n           Wild.Mussels.2000.PROPER.LiMiTED.DVDRip.XviD-EXViD                       \n                                                                                   \n                                                                                  \n     \n                                                                                               \nEXViD aims to iNTERNAL those releases which have been lost in the archives.\nEXViD aims to PRE non-internal releases which have poor sources and are likely skipped by others.\n &lt;a href=&quot;\nhttp://www.imdb.com/title/tt0204055/&quot; rel=&quot;nofollow&quot; target=&quot;_NEW&quot;&gt;\nhttp://www.imdb.com/title/tt0204055/&lt;/a&gt;\nSubtitles: NL, NL HI, EN FD\nDate: 2011.09\n\nDirector: Erik de Bruyn\n\nGenres: Drama\n\nPlot:\nHappiness is a foreign landscape.\n\nCast:\nFedja van Hut \t ... \t Leen \nFrank Lammers \t ... \t Daan \nFrederik Brom \t ... \t Jacob (as Freek Brom) \nWill van Kralingen \t ... \t Noortje \nJosse De Pauw \t ... \t Wannes \nAngelique de Bruijne \t ... \t Janine \nMelek Karasu \t ... \t Atash \nMartin Dunne \t ... \t Nowhere Man \nHans Veerman \t ... \t Rinus \nFreark Smink \t ... \t Bert \nMarina de Graaf \t ... \t Diana \nMalou Elshout \t ... \t Esmeralda \nManuel Dijselinck \t ... \t Knecht \nErik Holm \t ... \t Volkert \nRoos Blok \t ... \t Bobby\n\nStats:\nFormat                           : AVI\nFormat/Info                      : Audio Video Interleave\nFile size                        : 1.37 GiB\nDuration                         : 1h 59mn\nOverall bit rate                 : 1 639 Kbps\nWriting application              : VirtualDubMod 1.5.10.2 (build 2540/release)\nWriting library                  : VirtualDubMod build 2540/release\n\nVideo\nID                               : 0\nFormat                           : MPEG-4 Visual\nFormat profile                   : Advanced Simple@L5\nFormat settings, BVOP            : Yes\nFormat settings, QPel            : No\nFormat settings, GMC             : No warppoints\nFormat settings, Matrix          : Default (H.263)\nMuxing mode                      : Packed bitstream\nCodec ID                         : XVID\nCodec ID/Hint                    : XviD\nDuration                         : 1h 59mn\nBit rate                         : 1 182 Kbps\nWidth                            : 624 pixels\nHeight                           : 336 pixels\nDisplay aspect ratio             : 1.857\nFrame rate                       : 25.000 fps\nColor space                      : YUV\nChroma subsampling               : 4:2:0\nBit depth                        : 8 bits\nScan type                        : Progressive\nBits/(Pixel*Frame)               : 0.225\nStream size                      : 1 009 MiB (72%)\nWriting library                  : XviD 62\n\nAudio\nID                               : 1\nFormat                           : AC-3\nFormat/Info                      : Audio Coding 3\nMode extension                   : CM (complete main)\nCodec ID                         : 2000\nDuration                         : 1h 59mn\nBit rate mode                    : Constant\nBit rate                         : 448 Kbps\nChannel(s)                       : 6 channels\nChannel positions                : Front: L C R, Side: L R, LFE\nSampling rate                    : 48.0 KHz\nBit depth                        : 16 bits\nStream size                      : 382 MiB (27%)\nAlignment                        : Split accross interleaves\nInterleave, duration             : 40 ms (1.00 video frame)\nInterleave, preload duration     : 500 ms\n\n\n\n\nRelease notes:\nApL rls width wasn't mod 16 as described in the 2k5TDX rules and in addition contained dupe\nframes due to bad.ivtc. We included their sample.\n\nLooking for:\n75TB+ Archives\nDUTCH/FLEMiSH Archives\n                                                                                                    \nGreets: CRBS EPiSODE FiCO FLS iLS KLASSiGER LiPSYNC MADE NODLABS RUNNER SPRiNTER      \n   \n\n                                                                    ASCII DONE BY XX^NFO 2oo9","torrent":{"xt":"urn:btih:60f903132b90bf4290fad5cee8e714cbe3ea5326","amp;dn":"Wild.Mussels.2000.PROPER.LiMiTED.DVDRip.XviD-EXViD","amp;tr":["udp%3A%2F%2Ftracker.openbittorrent.com%3A80","udp%3A%2F%2Fopen.demonii.com%3A1337","udp%3A%2F%2Ftracker.coppersurfer.tk%3A6969","udp%3A%2F%2Fexodus.desync.com%3A6969"],"infoHash":"60f903132b90bf4290fad5cee8e714cbe3ea5326","infoHashBuffer":{"type":"Buffer","data":[96,249,3,19,43,144,191,66,144,250,213,206,232,231,20,203,227,234,83,38]},"announce":[],"urlList":[]}}